HIERARCHY
ROOT Hips
{
	OFFSET -0.001795 -0.223333 0.028219
	CHANNELS 6 Xposition Yposition Zposition Zrotation Yrotation Xrotation
	JOINT LeftUpLeg
	{
		OFFSET 0.069520 -0.091406 -0.006815
		CHANNELS 3 Zrotation Yrotation Xrotation
		JOINT LeftLeg
		{
			OFFSET 0.034277 -0.375199 -0.004496
			CHANNELS 3 Zrotation Yrotation Xrotation
			JOINT LeftFoot
			{
				OFFSET -0.013596 -0.397961 -0.043693
				CHANNELS 3 Zrotation Yrotation Xrotation
				JOINT LeftToe
				{
					OFFSET 0.026358 -0.055791 0.119288
					CHANNELS 3 Zrotation Yrotation Xrotation
					End Site
					{
						OFFSET 0.000000 0.000000 0.000000
					}
				}
			}
		}
	}
	JOINT RightUpLeg
	{
		OFFSET -0.067670 -0.090522 -0.004320
		CHANNELS 3 Zrotation Yrotation Xrotation
		JOINT RightLeg
		{
			OFFSET -0.038290 -0.382569 -0.008850
			CHANNELS 3 Zrotation Yrotation Xrotation
			JOINT RightFoot
			{
				OFFSET 0.015774 -0.398415 -0.042312
				CHANNELS 3 Zrotation Yrotation Xrotation
				JOINT RightToe
				{
					OFFSET -0.025372 -0.048144 0.123348
					CHANNELS 3 Zrotation Yrotation Xrotation
					End Site
					{
						OFFSET 0.000000 0.000000 0.000000
					}
				}
			}
		}
	}
	JOINT Spine
	{
		OFFSET -0.002533 0.108963 -0.026696
		CHANNELS 3 Zrotation Yrotation Xrotation
		JOINT Spine1
		{
			OFFSET 0.005487 0.135180 0.001092
			CHANNELS 3 Zrotation Yrotation Xrotation
			JOINT Spine2
			{
				OFFSET 0.001457 0.052922 0.025425
				CHANNELS 3 Zrotation Yrotation Xrotation
				JOINT Neck
				{
					OFFSET -0.002778 0.213870 -0.042857
					CHANNELS 3 Zrotation Yrotation Xrotation
					JOINT Head
					{
						OFFSET 0.005152 0.064970 0.051349
						CHANNELS 3 Zrotation Yrotation Xrotation
						End Site
						{
							OFFSET 0.000000 0.000000 0.000000
						}
					}
				}
				JOINT LeftShoulder
				{
					OFFSET 0.078845 0.121749 -0.034090
					CHANNELS 3 Zrotation Yrotation Xrotation
					JOINT LeftArm
					{
						OFFSET 0.090977 0.030469 -0.008868
						CHANNELS 3 Zrotation Yrotation Xrotation
						JOINT LeftForeArm
						{
							OFFSET 0.259612 -0.012772 -0.027456
							CHANNELS 3 Zrotation Yrotation Xrotation
							JOINT LeftHand
							{
								OFFSET 0.249234 0.008986 -0.001171
								CHANNELS 3 Zrotation Yrotation Xrotation
								End Site
								{
									OFFSET 0.000000 0.000000 0.000000
								}
							}
						}
					}
				}
				JOINT RightShoulder
				{
					OFFSET -0.081759 0.118833 -0.038615
					CHANNELS 3 Zrotation Yrotation Xrotation
					JOINT RightArm
					{
						OFFSET -0.096012 0.032551 -0.009143
						CHANNELS 3 Zrotation Yrotation Xrotation
						JOINT RightForeArm
						{
							OFFSET -0.253742 -0.013329 -0.021401
							CHANNELS 3 Zrotation Yrotation Xrotation
							JOINT RightHand
							{
								OFFSET -0.255298 0.007772 -0.005559
								CHANNELS 3 Zrotation Yrotation Xrotation
								End Site
								{
									OFFSET 0.000000 0.000000 0.000000
								}
							}
						}
					}
				}
			}
		}
	}
}
MOTION
Frames: 7
Frame Time: 0.050000
-1.164533 0.250741 1.235419 -7.839363 4.185878 -82.719748 14.758018 1.842081 -23.850637 -8.401320 -6.819043 81.080512 8.258454 7.692734 -30.752736 0.000000 0.000000 0.000000 -21.853285 -7.134147 -30.229730 15.616031 -21.081196 112.378986 -10.799605 -31.177635 -24.292374 0.000000 0.000000 0.000000 -6.854023 -2.629115 -28.502320 2.875432 -0.795087 -7.694745 8.259772 15.908880 43.331252 6.839788 2.413448 -34.819300 0.000000 0.000000 0.000000 36.198274 1.056140 6.085093 -96.331464 -18.856633 -18.525358 -102.767755 -45.880474 65.894381 0.000000 0.000000 0.000000 5.156475 -10.359905 -3.047388 56.409064 -14.818115 -13.239767 -25.014413 15.294291 -0.261626 0.000000 0.000000 0.000000
-1.167256 0.251647 1.240706 -7.923661 4.129880 -81.977890 15.396750 1.994022 -25.353312 -8.699145 -6.784549 82.919387 7.849128 4.860638 -32.755455 0.000000 0.000000 0.000000 -21.961251 -7.425366 -32.378855 15.393307 -20.340510 112.188877 -11.874211 -33.269566 -18.242166 0.000000 0.000000 0.000000 -6.740159 -2.657543 -29.414735 3.063531 -0.942702 -6.792310 9.011940 16.191430 43.620049 6.208873 2.677534 -33.290449 0.000000 0.000000 0.000000 33.081367 0.780298 5.662243 -95.007191 -18.619983 -18.144921 -99.472928 -48.385260 65.125392 0.000000 0.000000 0.000000 8.275530 -8.951765 -1.681993 56.207256 -11.587009 -12.640215 -26.376306 13.917127 -0.001379 0.000000 0.000000 0.000000
-1.169428 0.254741 1.246785 -7.841198 3.711955 -81.642358 15.642723 2.078109 -26.782909 -9.506121 -6.015871 85.495208 7.532971 5.578332 -30.822002 0.000000 0.000000 0.000000 -21.225188 -7.315543 -35.341851 14.468928 -18.739881 112.179146 -11.767089 -29.806071 -7.532321 0.000000 0.000000 0.000000 -6.442876 -2.434342 -29.329807 3.031002 -0.960573 -6.420306 9.100769 16.845814 43.164555 5.173450 3.225878 -32.298808 0.000000 0.000000 0.000000 32.136794 0.647576 5.670811 -95.306053 -18.186046 -18.788722 -96.508931 -49.215186 63.226172 0.000000 0.000000 0.000000 11.792469 -8.409169 -0.472384 54.602813 -9.013328 -12.095249 -27.937171 12.388940 0.360819 0.000000 0.000000 0.000000
-1.172030 0.255437 1.253967 -8.710777 3.460406 -81.660640 15.844465 2.076822 -28.282448 -9.343712 -6.798921 88.411390 6.970876 3.203108 -31.473328 0.000000 0.000000 0.000000 -20.704618 -7.568355 -38.377632 13.350839 -17.416696 113.845397 -10.463237 -25.581118 0.932051 0.000000 0.000000 0.000000 -7.234072 -2.827925 -28.656553 3.485237 -1.126663 -6.825787 9.662861 15.669151 43.463025 4.873650 3.142485 -31.489204 0.000000 0.000000 0.000000 29.373778 1.436035 4.824678 -94.987606 -16.439996 -18.654554 -92.603770 -51.022364 61.529986 0.000000 0.000000 0.000000 12.518353 -8.047654 -0.272913 54.793580 -6.963146 -11.731078 -29.253425 10.367493 0.840603 0.000000 0.000000 0.000000
-1.175465 0.256031 1.261572 -8.609682 3.016038 -81.274689 16.558567 2.296707 -30.367396 -9.428592 -6.782040 91.950921 6.522445 2.172009 -31.304184 0.000000 0.000000 0.000000 -20.209305 -7.563899 -41.509363 13.071888 -17.136622 115.354798 -9.764516 -23.785401 8.252389 0.000000 0.000000 0.000000 -7.494723 -2.926777 -29.070154 3.466489 -1.214150 -5.750557 10.158349 16.333572 43.070523 6.193366 2.461980 -30.817805 0.000000 0.000000 0.000000 27.371338 0.860240 4.635156 -95.426673 -15.792750 -19.091578 -88.145901 -50.474503 56.912198 0.000000 0.000000 0.000000 12.961170 -7.847968 -0.023741 54.987395 -5.490242 -11.254322 -28.762782 8.241739 1.300465 0.000000 0.000000 0.000000
-1.179698 0.256131 1.269218 -9.458176 2.535787 -81.610865 16.940744 2.384920 -31.785891 -9.231134 -7.631420 94.320947 5.871244 1.279560 -29.266431 0.000000 0.000000 0.000000 -19.853106 -7.760347 -43.825005 12.821938 -17.425104 116.873145 -9.062172 -22.476982 14.921336 0.000000 0.000000 0.000000 -8.520130 -3.280604 -27.443927 4.178565 -1.473638 -6.483352 9.947911 15.686001 43.372980 6.113294 2.412410 -30.759486 0.000000 0.000000 0.000000 24.319508 1.731148 3.806888 -94.454150 -13.582502 -19.737968 -87.050502 -50.297587 55.402202 0.000000 0.000000 0.000000 12.649360 -6.982800 0.242610 55.315318 -4.915407 -11.156349 -26.661484 6.979854 1.321179 0.000000 0.000000 0.000000
-1.184415 0.255825 1.276732 -9.142781 2.259959 -81.469273 18.667361 2.997125 -33.952004 -9.882628 -6.831820 95.898292 5.042885 0.412318 -26.007921 0.000000 0.000000 0.000000 -19.078873 -7.566714 -46.843706 12.558637 -17.453893 118.659795 -8.987495 -22.349545 19.499813 0.000000 0.000000 0.000000 -8.638195 -3.277157 -27.485510 3.369779 -1.191292 -5.614191 10.956801 16.303934 43.354311 7.332450 1.838370 -30.953298 0.000000 0.000000 0.000000 23.282914 1.944615 3.653539 -94.834502 -12.098490 -21.427238 -85.324581 -48.041467 51.686938 0.000000 0.000000 0.000000 11.416151 -7.128075 -0.092074 58.148593 -3.561926 -10.502489 -24.126779 6.198426 1.318321 0.000000 0.000000 0.000000
